<svg version="1.1" id="Layer_1" xmlns="http://www.w3.org/2000/svg" xmlns:xlink="http://www.w3.org/1999/xlink" x="0px" y="0px"
	 width="100%" viewBox="0 0 496 496" enable-background="new 0 0 496 496" xml:space="preserve">
<path fill="#000000" opacity="1.000000" stroke="none" 
	d="
M1.000000,463.000000 
	C1.000000,324.976685 1.000000,186.953354 1.216871,48.636044 
	C3.635422,50.927494 6.977115,49.882416 9.711484,50.877220 
	C14.732959,52.704109 19.002468,51.235241 22.594381,47.073486 
	C25.836939,43.316505 29.557728,40.117226 34.029236,37.613129 
	C41.814201,33.253452 50.596478,32.911087 58.879810,30.634373 
	C65.036446,28.942188 70.040749,25.649250 74.726471,21.599724 
	C76.070801,20.437908 77.139847,18.833260 76.233368,17.217539 
	C73.933563,13.118327 75.164803,9.118684 76.278152,5.178670 
	C76.971153,2.726228 75.735504,1.855625 74.000000,1.000000 
	C196.023331,1.000000 318.046661,1.000000 440.352722,1.249406 
	C440.567261,7.516497 440.493958,13.534140 440.445496,19.551977 
	C440.442993,19.863199 440.584747,20.226206 440.773132,20.480919 
	C445.194702,26.458847 449.095612,33.054508 456.482330,35.914806 
	C462.499756,38.244907 466.268036,42.369030 468.380829,48.410202 
	C470.295441,53.884655 472.754730,59.166565 474.751190,64.614960 
	C477.104736,71.037827 481.791992,74.582077 488.283569,75.680557 
	C491.730865,76.263893 494.547791,77.644318 497.000000,80.000000 
	C497.000000,218.928635 497.000000,357.857269 497.000000,497.000000 
	C356.976746,497.000000 216.953384,497.000000 76.568405,496.808472 
	C76.303185,492.026459 74.581917,488.841827 70.599556,485.962372 
	C62.749878,480.286621 53.740643,479.898651 44.889450,479.383606 
	C27.807098,478.389648 14.204197,471.007050 2.352796,458.972778 
	C1.412978,459.663666 2.062184,461.709290 1.000000,463.000000 
M291.608948,390.649048 
	C310.677612,391.349060 329.452454,388.821136 348.176422,385.606262 
	C352.136627,384.926300 353.832245,383.130066 353.702271,378.922363 
	C353.434845,370.264374 353.654144,361.592224 353.608002,352.926239 
	C353.577759,347.244507 352.672150,346.544647 347.049164,347.778900 
	C329.254944,351.684753 311.256073,353.638702 293.037781,353.321564 
	C276.381805,353.031616 259.839233,351.213196 243.302536,349.365814 
	C241.043625,349.113464 238.162628,349.580841 237.955719,346.278839 
	C237.746536,342.940277 240.659424,343.054901 242.888672,342.641602 
	C256.975220,340.030090 270.907135,336.804718 284.340485,331.743408 
	C308.267914,322.728058 328.334259,308.916901 340.754822,285.770111 
	C347.608765,272.997131 351.296021,259.331573 353.055603,244.945175 
	C355.903870,221.657394 354.855591,198.714325 347.576263,176.364105 
	C338.099213,147.266037 319.774292,126.194321 290.267426,116.073242 
	C271.808685,109.741760 252.733353,108.645622 233.567154,111.458649 
	C201.001160,116.238358 175.658539,132.195648 160.955765,162.228500 
	C146.460403,191.837723 144.442535,223.231873 150.935562,255.252304 
	C154.539810,273.026611 161.427216,289.456573 174.682587,302.281006 
	C196.428711,323.320160 223.230621,326.046021 251.500595,322.061951 
	C259.506073,320.933777 267.367920,318.786743 275.277069,317.110901 
	C276.252930,321.257111 276.309631,321.351654 273.886780,322.804443 
	C272.183136,323.826019 270.343170,324.659821 268.488617,325.384216 
	C246.177109,334.099182 222.561554,335.853180 199.083374,338.348419 
	C184.462708,339.902283 169.795486,339.434265 155.144043,339.292725 
	C150.760910,339.250366 149.203613,340.877289 149.323013,345.167267 
	C149.531570,352.661041 149.378067,360.164856 149.376923,367.664459 
	C149.375305,378.115723 149.384186,378.247040 159.909851,377.554230 
	C189.190231,375.626984 218.047134,378.957458 246.752609,384.306671 
	C261.297119,387.017029 275.802002,389.992371 291.608948,390.649048 
z"/>
<path fill="#000000" opacity="1.000000" stroke="none" 
	d="
M221.020660,293.150513 
	C207.083466,283.408203 200.835693,269.295074 198.010773,253.770416 
	C194.016724,231.820847 193.960114,209.700485 199.737671,187.959122 
	C209.533920,151.095123 251.618652,135.899155 282.455566,157.994934 
	C293.902374,166.196991 299.656616,178.282867 303.003540,191.367233 
	C308.999817,214.808823 309.142792,238.504684 303.076294,261.955719 
	C293.969849,297.158325 265.388733,305.369690 237.998932,299.809662 
	C232.111816,298.614594 226.457428,296.602264 221.020660,293.150513 
z"/>
</svg>